<svg width="91" height="30" viewBox="0 0 91 30" fill="none" xmlns="http://www.w3.org/2000/svg">
<path fill-rule="evenodd" clip-rule="evenodd" d="M31.9839 0.0341556C31.9839 0.0341556 33.2114 0.0341556 43.7817 0.0341556C54.3521 0.0341556 59.9669 8.33397 59.9669 15.0171C59.9669 21.7002 54.3635 29.9431 43.7817 29.9431H31.9839V0.0341556ZM37.6441 5.63567V24.3871H43.7817C50.3967 24.3871 54.2612 19.7761 54.2612 15.0285C54.2612 10.2808 50.4081 5.63567 43.7817 5.63567C37.1554 5.63567 37.6441 5.63567 37.6441 5.63567Z" fill="#FAFAFA"/>
<path fill-rule="evenodd" clip-rule="evenodd" d="M76.0952 0C86.2109 0 90.8824 6.5351 90.8824 11.2144H85.4608C85.4608 10.0076 82.7443 5.6129 76.0952 5.6129C69.8894 5.6129 66.7069 9.85958 66.7069 15.0057C66.7069 20.1518 70.3895 24.3985 76.0952 24.3985C83.324 24.3985 85.4608 19.7078 85.4608 18.2505H90.8824C90.8824 18.2505 90.8824 30 76.0952 30C66.0363 30 61.2967 21.575 61.2967 14.9943C61.2967 8.41366 65.9795 0 76.0952 0Z" fill="#FAFAFA"/>
<path d="M16.1056 17.0436L23.0957 13.9469C23.198 13.9013 23.2548 13.8102 23.2548 13.6964L23.323 6.17078C23.323 5.97723 23.1184 5.84061 22.9365 5.9203L15.9578 9.00569C15.8555 9.05123 15.7987 9.14231 15.7987 9.25617L15.7191 16.7932C15.7191 16.9867 15.9237 17.1233 16.1056 17.0436Z" fill="#FAFAFA"/>
<path d="M25.1643 0.375712C21.9818 -0.671727 18.7084 0.899431 16.242 2.67552C14.0711 4.23529 11.9002 6.3871 9.89977 8.80076C10.0134 10.5768 10.2066 13.1044 11.7979 15.5977C12.6617 14.3454 13.48 13.2638 14.5371 12.0114L14.5712 8.85769C14.5712 8.59583 14.7303 8.35674 14.9804 8.24288L23.4594 4.49715C23.914 4.29222 24.4369 4.62239 24.4369 5.12334C24.4369 5.12334 24.4369 16.4972 24.4255 20.334C10.2407 22.9298 9.13825 11.8634 8.87683 9.91651C8.69497 8.58444 8.59268 7.08159 8.59268 5.39658H2.93242C2.93242 9.74573 3.54619 13.3662 4.69415 16.3036C3.05745 18.2846 0 25.7192 0 29.9431H5.66026C5.66026 26.6869 7.97892 22.1328 8.14941 21.7913C9.33147 22.9981 13.7528 27.5863 24.4141 25.9696V29.9431H30.0744V7.33207C30.063 1.68501 25.1302 0.364326 25.1643 0.375712Z" fill="#FAFAFA"/>
</svg>
