<svg width="91" height="36" viewBox="0 0 91 36" fill="none" xmlns="http://www.w3.org/2000/svg">
<path fill-rule="evenodd" clip-rule="evenodd" d="M31.9839 3.03416C31.9839 3.03416 33.2114 3.03416 43.7817 3.03416C54.3521 3.03416 59.9669 11.334 59.9669 18.0171C59.9669 24.7002 54.3635 32.9431 43.7817 32.9431H31.9839V3.03416ZM37.6441 8.63567V27.3871H43.7817C50.3967 27.3871 54.2612 22.7761 54.2612 18.0285C54.2612 13.2808 50.4081 8.63567 43.7817 8.63567C37.1554 8.63567 37.6441 8.63567 37.6441 8.63567Z" fill="#FAFAFA"/>
<path fill-rule="evenodd" clip-rule="evenodd" d="M76.0952 3C86.2109 3 90.8824 9.5351 90.8824 14.2144H85.4608C85.4608 13.0076 82.7443 8.6129 76.0952 8.6129C69.8894 8.6129 66.7069 12.8596 66.7069 18.0057C66.7069 23.1518 70.3895 27.3985 76.0952 27.3985C83.324 27.3985 85.4608 22.7078 85.4608 21.2505H90.8824C90.8824 21.2505 90.8824 33 76.0952 33C66.0363 33 61.2967 24.575 61.2967 17.9943C61.2967 11.4137 65.9795 3 76.0952 3Z" fill="#FAFAFA"/>
<path d="M16.1056 20.0436L23.0957 16.9469C23.198 16.9013 23.2548 16.8102 23.2548 16.6964L23.323 9.17078C23.323 8.97723 23.1184 8.84061 22.9365 8.9203L15.9578 12.0057C15.8555 12.0512 15.7987 12.1423 15.7987 12.2562L15.7191 19.7932C15.7191 19.9867 15.9237 20.1233 16.1056 20.0436Z" fill="#FAFAFA"/>
<path d="M25.1643 3.37571C21.9818 2.32827 18.7084 3.89943 16.242 5.67552C14.0711 7.23529 11.9002 9.3871 9.89977 11.8008C10.0134 13.5768 10.2066 16.1044 11.7979 18.5977C12.6617 17.3454 13.48 16.2638 14.5371 15.0114L14.5712 11.8577C14.5712 11.5958 14.7303 11.3567 14.9804 11.2429L23.4594 7.49715C23.914 7.29222 24.4369 7.62239 24.4369 8.12334C24.4369 8.12334 24.4369 19.4972 24.4255 23.334C10.2407 25.9298 9.13825 14.8634 8.87683 12.9165C8.69497 11.5844 8.59268 10.0816 8.59268 8.39658H2.93242C2.93242 12.7457 3.54619 16.3662 4.69415 19.3036C3.05745 21.2846 0 28.7192 0 32.9431H5.66026C5.66026 29.6869 7.97892 25.1328 8.14941 24.7913C9.33147 25.9981 13.7528 30.5863 24.4141 28.9696V32.9431H30.0744V10.3321C30.063 4.68501 25.1302 3.36433 25.1643 3.37571Z" fill="#FAFAFA"/>
</svg>
