<svg width="99" height="33" viewBox="0 0 99 33" fill="none" xmlns="http://www.w3.org/2000/svg">
<path fill-rule="evenodd" clip-rule="evenodd" d="M34.4927 0.0368347C34.4927 0.0368347 35.8165 0.0368347 47.216 0.0368347C58.6155 0.0368347 64.6707 8.98768 64.6707 16.195C64.6707 23.4023 58.6277 32.2918 47.216 32.2918H34.4927V0.0368347ZM40.5969 6.07773V26.3H47.216C54.3498 26.3 58.5174 21.3273 58.5174 16.2073C58.5174 11.0873 54.3621 6.07773 47.216 6.07773C40.0698 6.07773 40.5969 6.07773 40.5969 6.07773Z" fill="#FAFAFA"/>
<path fill-rule="evenodd" clip-rule="evenodd" d="M82.0641 0C92.9733 0 98.0111 7.04772 98.0111 12.0941H92.1643C92.1643 10.7926 89.2347 6.05318 82.0641 6.05318C75.3715 6.05318 71.9394 10.633 71.9394 16.1827C71.9394 21.7325 75.9108 26.3123 82.0641 26.3123C89.8599 26.3123 92.1643 21.2537 92.1643 19.682H98.0111C98.0111 19.682 98.0111 32.3532 82.0641 32.3532C71.2162 32.3532 66.1048 23.2673 66.1048 16.1705C66.1048 9.07363 71.1549 0 82.0641 0Z" fill="#FAFAFA"/>
<path d="M17.3689 18.3805L24.9073 15.0409C25.0176 14.9917 25.0789 14.8935 25.0789 14.7707L25.1524 6.65481C25.1524 6.44608 24.9318 6.29874 24.7357 6.38469L17.2096 9.7121C17.0992 9.76121 17.038 9.85943 17.038 9.98222L16.9522 18.1104C16.9522 18.3191 17.1728 18.4665 17.3689 18.3805Z" fill="#FAFAFA"/>
<path d="M27.1381 0.405182C23.706 -0.724417 20.1759 0.969982 17.516 2.88539C15.1748 4.56751 12.8336 6.8881 10.6763 9.49109C10.7989 11.4065 11.0073 14.1323 12.7233 16.8212C13.6549 15.4706 14.5374 14.3042 15.6774 12.9536L15.7141 9.55248C15.7141 9.27008 15.8857 9.01223 16.1554 8.88945L25.2995 4.84991C25.7898 4.6289 26.3537 4.98497 26.3537 5.52521C26.3537 5.52521 26.3537 17.7912 26.3414 21.929C11.044 24.7284 9.85505 12.7939 9.57312 10.6944C9.377 9.2578 9.26669 7.63707 9.26669 5.81989H3.16244C3.16244 10.5102 3.82435 14.4147 5.06236 17.5825C3.29727 19.7189 0 27.7366 0 32.2918H6.10425C6.10425 28.7802 8.60478 23.8689 8.78864 23.5006C10.0634 24.8021 14.8316 29.7502 26.3292 28.0067V32.2918H32.4334V7.90719C32.4211 1.81718 27.1014 0.392904 27.1381 0.405182Z" fill="#FAFAFA"/>
</svg>
